<?xml version="1.0" encoding="utf-8"?>
<!-- Generator: Adobe Illustrator 16.0.0, SVG Export Plug-In . SVG Version: 6.00 Build 0)  -->
<!DOCTYPE svg PUBLIC "-//W3C//DTD SVG 1.1//EN" "http://www.w3.org/Graphics/SVG/1.1/DTD/svg11.dtd">
<svg version="1.1" id="Layer_1" xmlns="http://www.w3.org/2000/svg" xmlns:xlink="http://www.w3.org/1999/xlink" x="0px" y="0px"
	 width="126.084px" height="65.75px" viewBox="0 0 126.084 65.75" enable-background="new 0 0 126.084 65.75" xml:space="preserve">
<g>
	<rect x="20.5" y="0.5" fill="#454545" width="19" height="19"/>
	<path fill="#FFFFFF" d="M39,1v18H21V1H39 M40,0H20v20h20V0L40,0z"/>
</g>
<g>
	<rect x="60.5" y="0.5" fill="#454545" width="19" height="19"/>
	<path fill="#FFFFFF" d="M79,1v18H61V1H79 M80,0H60v20h20V0L80,0z"/>
</g>
<g>
	<rect x="100.5" y="0.5" fill="#454545" width="19" height="19"/>
	<path fill="#FFFFFF" d="M119,1v18h-18V1H119 M120,0h-20v20h20V0L120,0z"/>
</g>
<polygon fill="#454545" points="0,10 0,0 7.002,5 "/>
<polygon fill="#454545" points="44.25,6.417 56.25,6.417 50.25,14.417 "/>
<polygon fill="#454545" points="86.75,16 86.75,4 94.75,10 "/>
</svg>
